<?xml version="1.0" encoding="UTF-8"?>
<svg width="168px" height="166px" viewBox="0 0 168 166" version="1.1" xmlns="http://www.w3.org/2000/svg" xmlns:xlink="http://www.w3.org/1999/xlink">
    <!-- Generator: Sketch 63.1 (92452) - https://sketch.com -->
    <title>tbr-logo</title>
    <desc>Created with Sketch.</desc>
    <g id="Welcome" stroke="none" stroke-width="1" fill="none" fill-rule="evenodd">
        <g id="Desktop-HD" transform="translate(-140.000000, -235.000000)">
            <g id="Hero" transform="translate(0.000000, 80.000000)">
                <g id="tbr-logo" transform="translate(135.000000, 150.000000)">
                    <rect id="Rectangle" fill-rule="nonzero" x="5" y="5" width="168" height="166"></rect>
                    <g id="Logo">
                        <path d="M89.6636,179.4414 C40.1426,179.4414 -0.0014,139.2974 -0.0014,89.7764 C-0.0014,40.2554 40.1426,0.1114 89.6636,0.1114 C139.1846,0.1114 179.3286,40.2554 179.3286,89.7764 C179.3286,139.2974 139.1846,179.4414 89.6636,179.4414 Z" id="Fill-1"></path>
                        <path d="M97.8193,6.0829 C117.3003,8.1639 136.6973,17.0329 149.9983,31.5179 C151.0733,33.2919 153.0593,34.3199 153.7353,36.3479 C156.1223,37.9179 157.2843,40.9509 159.1833,43.3049 C177.3363,71.2389 176.6903,105.3739 159.3523,133.2839 C157.5953,135.4419 156.3343,138.1159 154.1523,139.9409 C153.2903,139.7749 152.8203,139.0589 152.4353,138.3149 C167.1463,118.8639 173.1983,94.6829 168.1443,71.3739 C161.5063,40.0269 136.9103,16.5529 105.3433,10.1589 C75.3673,3.2519 40.0043,18.0869 23.1163,43.5379 C5.1553,69.2989 3.5493,102.2129 18.9683,129.5009 C30.8673,150.1869 52.2993,164.6339 75.6693,168.3079 C76.0573,169.0569 75.8213,169.7429 75.6733,170.3919 C75.0733,171.4169 73.9803,170.6449 73.0483,170.8059 C43.6323,165.8699 20.3783,144.8609 9.9463,117.3539 C-0.3967,88.0209 7.3983,54.1299 29.2383,31.7509 C46.0753,13.1779 73.5803,4.0369 97.8193,6.0829" id="Fill-3" fill="#18265D" fill-rule="nonzero"></path>
                        <path d="M125.395,44.6163 C125.561,45.0493 125.367,45.3223 125.054,45.5453 C118.253,48.5443 111.629,50.1863 105.047,53.5033 L74.312,65.3723 C68.919,67.6373 62.686,69.5273 57.666,72.2453 C58.497,73.1183 58.988,74.9193 60.495,74.4423 L92.082,61.9463 C98.528,59.5753 105.678,56.4423 112.589,53.9933 C113.139,55.1733 111.44,55.9233 111.045,56.9703 C105.945,59.2233 101.016,61.4053 95.564,62.9963 C84.296,67.3113 73.112,72.0913 62.104,76.3073 L61.856,76.7023 L62.9516624,77.5562824 C68.5711875,81.8849836 76.254,86.9146125 83.529,84.5043 C94.52,81.2883 104.972,73.8063 108.892,62.7643 L109.333676,61.8717296 C111.646536,57.2496673 114.461758,52.5095424 118.891,49.6923 C121.076,47.8623 123.835,46.5083 126.74,45.7923 L128.823109,47.625925 C130.918188,49.482925 132.96025,51.45805 134.149,53.9833 C125.649,57.7363 118.464,63.3693 112.506,70.1263 C109.532,73.2513 106.466,76.4143 102.945,79.1523 L96.4680508,81.674425 C81.4502344,87.5300344 67.052,93.18505 52.31,98.7413 C52.163,99.3983 52.808,100.0423 53.212,100.5843 L54.552,100.9653 C73.124,94.4503 88.967,87.2903 107.073,80.8503 C107.491,81.6843 106.464,82.3783 106.087,83.2163 C102.468,85.6953 98.222,86.0303 94.154,88.3833 C81.404,92.9683 68.587,98.1743 55.835,102.7583 C58.305,106.0903 62.271,108.1473 66.086,110.0643 C69.265,110.8343 72.532,113.6633 75.799,111.8153 C76.201,110.2643 74.49,108.1343 75.751,106.7583 C76.992,106.8833 78.516,107.4903 79.731,108.3193 C81.913,108.5733 84.106,108.3283 86.384,108.0543 C86.704,107.3333 87.665,107.7603 88.119,107.3883 C91.366,105.7503 93.753,103.9383 96.199,101.5083 C97.232,100.8233 97.884,99.6733 98.964,98.8643 C104.065,93.2353 104.094,85.2703 109.518,79.7133 C112.224,76.3973 117.212,74.8853 120.718,73.1433 C126.166,70.7583 132.023,70.9973 137.681,70.7203 C139.504,70.8173 141.631,70.4043 143.319,71.4423 C144.545,74.6453 145.089,78.1233 145.467,81.4503 C143.571,82.4763 141.244,81.5833 139.167,81.8763 C131.105,81.5873 121.865,85.2203 116.551,91.3323 C113.603,95.0483 110.325,98.6843 106.414,101.1813 C105.617,102.4733 103.958,102.8183 102.483,103.3833 C96.436,105.4963 90.775,108.3623 84.77,110.0633 C84.808,110.9433 85.434,111.7983 86.22,112.2923 C91.898,110.5123 97.053,108.1423 102.614,106.3093 C114.515,101.0553 127.798,96.5663 139.78,91.7803 C140.231,92.6963 138.922,93.6993 138.161,94.2923 L134.519,95.6863 L134.519,95.6863 L92.301,112.3453 C91.056,112.7263 89.668,113.2583 88.536,114.1893 C91.569,117.6963 97.069,119.8603 101.286,121.5283 C105.436,123.0243 109.737,123.3563 113.83,121.5933 C124.783,117.4993 134.551,109.7843 137.258,97.9133 C139.104,94.4223 141.604,91.8753 144.642,89.4193 L145.375,88.7433 C146.367,90.5493 145.676,92.8993 145.682,94.9853 C142.923,118.4013 126.161,137.4443 102.784,143.6123 C86.5065,147.78323 68.179507,144.583605 54.3762835,134.377427 L53.891,134.0143 C37.198,121.8253 28.838,98.6923 33.148,78.5543 C35.766,64.6293 44.07,51.0153 55.693,43.4823 C58.6623333,40.9379667 62.0508951,39.0313957 65.866267,37.3380068 L66.544,37.0413 C85.701,28.4163 109.212,30.6393 125.395,44.6163 Z M77.5541,109.6474 L78.5551,113.0434 C82.5221,121.0624 93.0781,123.9754 100.8741,123.5694 L98.5003689,122.568067 C95.7418407,121.393277 93.0579889,120.150733 90.8351,118.3704 C88.9481,117.6084 87.6001,115.6404 85.8231,114.6314 C83.7061,113.2544 82.6201,109.8984 79.6641,110.2314 C79.0656,109.8354 78.45981,109.84035 77.782578,109.700229 L77.5541,109.6474 Z M45.0405,98.4468 L45.2895,100.1418 C48.8325,109.1258 59.6195,112.6388 68.2555,112.616133 C60.9357273,109.982053 53.5491002,105.942449 48.9796889,99.7783121 L48.6655,99.3448 L45.0405,98.4468 Z M118.4382,80.6782 C111.8322,84.1982 109.6822,92.0772 104.4042,96.9792 C105.9602,95.5912 107.3612,94.0572 108.6392,92.4752 C111.8322,90.1572 113.6402,86.5802 116.8952,84.4422 C121.5672,81.0652 127.0082,77.8892 132.7632,77.8672 C128.0672,77.2832 122.8222,77.6072 118.4382,80.6782 Z M49.6784,70.3331 C49.8614,71.8521 50.3274,73.0691 50.7374,74.4001 C54.4124,82.4351 64.4564,86.3411 72.8914,85.7941 C67.2164,83.6931 61.9804,80.1341 57.6724,76.4161 C55.3974,74.1091 52.7964,71.7231 49.6784,70.3331 Z" id="Shape" fill="#18265D" fill-rule="nonzero"></path>
                        <path d="M16.7896,92.668 C17.6226,101.59 19.2406,111.009 23.3736,119.468 C28.5076,131.31 37.0986,140.247 46.8296,147.751 C51.4956,150.335 56.1226,153.331 61.1766,155.375 C66.2856,157.297 71.7276,158.786 76.9686,159.759 C77.4416,160.472 77.3916,161.389 76.8656,162.086 C72.9316,162.198 69.0606,160.905 65.1936,159.895 C39.3496,151.312 21.0396,130.496 15.6016,104.356 C15.3126,100.491 13.8046,96.296 14.6046,92.409 C15.3656,92.319 16.1026,92.435 16.7896,92.668" id="Fill-55" fill="#18265D" fill-rule="nonzero"></path>
                        <path d="M26.0981,93.876 C26.5751,117.444 42.8101,138.558 64.5021,147.441 C68.9331,149.421 73.6431,150.298 78.2671,151.214 C79.0751,151.504 78.8541,152.483 78.5851,153.08 C77.8971,154.138 76.7501,153.483 75.8411,153.437 C49.4261,148.045 28.6991,127.662 24.1151,100.895 C23.8581,98.409 23.1011,95.916 23.3801,93.525 C24.2661,92.986 25.3981,93.349 26.0981,93.876" id="Fill-57" fill="#18265D" fill-rule="nonzero"></path>
                        <path d="M151.1328,46.6855 C161.9548,62.2195 166.3188,82.7065 162.8188,100.5525 C161.3138,112.4495 155.2868,125.0005 147.7898,134.2285 C147.1428,134.8765 146.5688,133.8985 146.1428,133.5655 L145.9978,132.9285 C148.3078,129.3565 151.2608,125.6455 152.9508,122.0195 C157.2278,113.7215 160.1938,104.3355 161.0308,95.3645 C162.8588,79.3635 158.2098,61.2665 148.5048,47.5935 C147.8448,46.6545 149.1808,46.2405 149.5648,45.6955 C150.4508,45.1575 150.6218,46.3825 151.1328,46.6855" id="Fill-59" fill="#18265D" fill-rule="nonzero"></path>
                        <path d="M146.1914,54.5419 C152.2764,65.2309 155.5104,78.1039 155.2484,90.1279 C154.7954,103.2199 149.9594,118.0959 141.3434,128.5519 C140.7464,129.0749 139.7144,128.9759 139.2964,128.1399 C139.4344,125.9049 141.6924,124.5399 142.6894,122.4679 L146.2414,116.4339 C149.6884,109.3509 151.3014,101.8729 152.5344,94.4479 C152.0704,94.0339 152.6114,93.6219 152.6744,93.0069 C153.0154,81.4459 151.3044,69.1809 145.0984,58.4389 C144.4604,56.4949 142.7714,54.9569 142.5624,52.8509 C144.0874,50.0809 145.1524,53.6469 146.1914,54.5419" id="Fill-61" fill="#18265D" fill-rule="nonzero"></path>
                        <path d="M135.8281,56.0248 C137.4101,58.5978 139.5981,60.9428 140.0881,64.0338 C131.3381,68.1808 122.2131,71.0788 113.0851,75.2688 C110.4061,75.7978 107.9381,77.1418 105.5861,77.7428 L105.4871,77.4838 C111.4991,73.1918 115.4401,66.6168 121.8381,62.5748 C126.1331,60.0338 130.8141,56.9518 135.8281,56.0248" id="Fill-63" fill="#18265D" fill-rule="nonzero"></path>
                        <path d="M144.769,84.3027 C145.717,84.4397 145.821,85.4897 145.88,86.1627 L145.061,86.8737 C133.463,91.1147 122.246,95.8147 111.071,99.5947 C113.054,97.2417 115.691,95.0417 117.999,92.7667 C122.212,89.7647 127.073,87.4067 132.259,86.4107 C136.438,85.9037 140.52,83.8447 144.769,84.3027" id="Fill-69" fill="#18265D" fill-rule="nonzero"></path>
                        <path d="M26.2470028,82.648152 L16.5615468,82.1960908 L16.7308833,78.5680405 L15.0047624,78.4874751 L14.5735885,87.7254182 L16.2997094,87.8059836 L16.4682999,84.1939158 L26.1537558,84.6459771 L26.2470028,82.648152 Z M26.9958623,76.1119113 L22.3701663,75.2571877 L22.9050954,72.3621943 C22.9884358,71.9111627 23.1144457,71.5520815 23.2831249,71.2849507 C23.4518042,71.0178199 23.674896,70.8231149 23.9524004,70.7008357 C24.2299048,70.5785565 24.5606531,70.5203517 24.9446452,70.5262214 C25.3286374,70.532091 25.7776166,70.5825105 26.2915828,70.6774798 C26.5642996,70.7278717 26.8499282,70.7670903 27.1484685,70.7951357 C27.4470089,70.8231811 27.7304708,70.7860688 27.9988544,70.6837987 L27.9988544,70.6837987 L28.3884223,68.5754883 C28.118899,68.7426311 27.7048366,68.8261185 27.1462352,68.8259503 C26.5876338,68.8257822 25.9779262,68.7646464 25.3171125,68.642543 C24.8765701,68.5611408 24.499276,68.5483734 24.1852305,68.6042408 C23.8711849,68.6601083 23.6068773,68.7549961 23.3923076,68.8889042 C23.1777378,69.0228123 23.0105686,69.1790379 22.8908,69.3575812 C22.7710314,69.5361245 22.6851528,69.7073709 22.6331642,69.8713203 L22.6331642,69.8713203 L22.6016969,69.8655058 C22.5876729,69.7652894 22.5523569,69.6041907 22.4957488,69.3822098 C22.4391408,69.1602289 22.3227049,68.9244814 22.1464412,68.6749672 C21.9701775,68.425453 21.7208892,68.1895636 21.3985764,67.967299 C21.0762635,67.7450344 20.6476349,67.5844794 20.1126905,67.4856338 C19.1581818,67.3092622 18.3562798,67.4810823 17.7069846,68.001094 C17.0576894,68.5211057 16.618691,69.3999688 16.3899894,70.6376834 L16.3899894,70.6376834 L15.3986263,76.0028614 L26.6324594,78.0786188 L26.9958623,76.1119113 Z M21.4714494,71.7556012 L20.8754687,74.9810015 L17.3668625,74.3326907 L17.9570288,71.1387578 C18.0035444,70.8870192 18.0695846,70.6470238 18.1551493,70.4187715 C18.2407141,70.1905192 18.36339,69.9962422 18.5231768,69.8359406 C18.6829637,69.6756391 18.8853058,69.5638778 19.1302031,69.500657 C19.3751004,69.4374361 19.6758638,69.4387742 20.0324934,69.5046713 C20.6303725,69.6151457 21.0487405,69.8605828 21.2875974,70.2409823 C21.5264544,70.6213819 21.5877384,71.1262548 21.4714494,71.7556012 L21.4714494,71.7556012 Z M30.8595457,63.0026477 C31.168616,62.2072526 31.2991625,61.4368978 31.2511851,60.6915833 C31.2032077,59.9462688 31.0106812,59.2563617 30.6736055,58.6218621 C30.3365298,57.9873625 29.8753438,57.4219342 29.2900474,56.9255771 C28.704751,56.42922 28.0293189,56.0323014 27.2637511,55.7348212 C26.5081258,55.4412044 25.7468755,55.2798648 24.9800003,55.2508023 C24.2131251,55.2217399 23.491161,55.3274261 22.814108,55.5678611 C22.1370549,55.8082961 21.5267296,56.1862353 20.9831318,56.7016787 C20.4395341,57.2171222 20.0132001,57.8725415 19.7041298,58.6679365 C19.3950595,59.4633316 19.2669986,60.2346523 19.3199472,60.9818985 C19.3728958,61.7291447 19.5679079,62.4200176 19.9049836,63.0545172 C20.2420593,63.6890168 20.7032454,64.2544451 21.2885418,64.7508022 C21.8738382,65.2471593 22.544299,65.6421462 23.2999244,65.935763 C24.0654921,66.2332432 24.8317136,66.3965145 25.5985888,66.425577 C26.365464,66.4546394 27.0874281,66.3489532 27.7644812,66.1085182 C28.4415342,65.8680833 29.049374,65.4891782 29.5880005,64.971803 C30.126627,64.4544279 30.5504754,63.7980428 30.8595457,63.0026477 Z M29.3383526,62.4115507 C29.11814,62.9782697 28.8135305,63.4235059 28.4245242,63.7472594 C28.0355179,64.0710129 27.5993989,64.2877713 27.1161672,64.3975346 C26.6329355,64.5072979 26.1235837,64.529667 25.588112,64.4646419 C25.0526403,64.3996169 24.5313723,64.2685881 24.0243079,64.0715558 C23.5172435,63.8745235 23.0442677,63.6192143 22.6053805,63.3056283 C22.1664933,62.9920422 21.8058816,62.6316274 21.5235456,62.224384 C21.2412096,61.8171405 21.0658686,61.3627843 20.9975228,60.8613154 C20.9291769,60.3598465 21.0051103,59.8257525 21.2253229,59.2590335 C21.4455355,58.6923145 21.7501449,58.2470783 22.1391512,57.9233248 C22.5281575,57.5995713 22.9642766,57.382813 23.4475083,57.2730496 C23.93074,57.1632863 24.4400917,57.1409172 24.9755635,57.2059423 C25.5110352,57.2709674 26.0323032,57.4019961 26.5393676,57.5990284 C27.0464319,57.7960608 27.5194077,58.0513699 27.958295,58.364956 C28.3971822,58.678542 28.7577939,59.0389568 29.0401299,59.4462003 C29.3224659,59.8534438 29.4978069,60.3078 29.5661527,60.8092689 C29.6344986,61.3107378 29.5585652,61.8448317 29.3383526,62.4115507 Z M34.456092,55.0718885 L27.2402523,50.0069588 L27.2586368,49.980767 L36.294542,52.452709 L37.2413438,51.1038315 L31.8455696,43.445914 L31.8639541,43.4197222 L39.0797938,48.4846519 L40.1736715,46.9262401 L30.8232005,40.3629736 L29.223749,42.6416598 L34.7794439,50.2945399 L34.7610594,50.3207317 L25.6295792,47.7621558 L24.0117432,50.0670339 L33.3622143,56.6303004 L34.456092,55.0718885 Z M43.0059564,44.1336028 L40.0662015,40.8813271 L42.3214292,38.842811 C42.9228232,38.2992066 43.3365427,37.7706744 43.5625877,37.2572141 C43.7886327,36.7437539 43.8865059,36.263473 43.8562073,35.8163714 C43.8259086,35.3692699 43.7106572,34.9594171 43.5104529,34.586813 C43.3102487,34.2142089 43.0921272,33.8973411 42.8560885,33.6362094 C42.6200498,33.3750778 42.3249659,33.1241822 41.9708368,32.8835227 C41.6167077,32.6428631 41.2187537,32.4849525 40.7769749,32.4097907 C40.3351962,32.334629 39.8457133,32.3816688 39.3085263,32.5509101 C38.7713394,32.7201514 38.2020489,33.0765742 37.6006548,33.6201785 L37.6006548,33.6201785 L33.8617248,36.9998238 L41.522254,45.4747319 L43.0059564,44.1336028 Z M41.1439805,37.707213 L38.9718402,39.670626 L36.4397885,36.8693959 L38.635668,34.8845248 C38.833495,34.7057076 39.0373341,34.5574021 39.2471853,34.4396084 C39.4570365,34.3218146 39.6775039,34.2555332 39.9085876,34.2407641 C40.1396712,34.2259949 40.3770343,34.2738474 40.620677,34.3843213 C40.8643196,34.4947952 41.111313,34.6885111 41.3616571,34.9654689 C41.6048485,35.2345136 41.7614117,35.499186 41.8313468,35.7594862 C41.9012818,36.0197865 41.911334,36.2695122 41.8615034,36.5086635 C41.8116727,36.7478148 41.7211715,36.9698093 41.5899999,37.1746469 C41.4588283,37.3794845 41.3101552,37.5570066 41.1439805,37.707213 L41.1439805,37.707213 Z M57.2201229,33.8899499 C57.8633666,33.5322719 58.3778738,33.151591 58.7636445,32.7479073 C59.1494151,32.3442236 59.4227739,31.9359204 59.5837207,31.5229979 C59.7446676,31.1100754 59.8004555,30.6946028 59.7510846,30.2765801 C59.7017138,29.8585574 59.5681698,29.4537763 59.3504528,29.0622366 C58.9720398,28.3817035 58.4986473,27.9034929 57.9302753,27.627605 C57.3619033,27.351717 56.7337929,27.3195798 56.0459439,27.5311934 L56.0459439,27.5311934 L56.0303927,27.5032263 C56.3783304,27.0534532 56.5760338,26.5804265 56.6235027,26.0841461 C56.6709716,25.5878657 56.5547451,25.0880214 56.2748232,24.5846133 C55.8134704,23.7549222 55.198403,23.2853128 54.4296208,23.1757853 C53.6608387,23.0662578 52.8289738,23.2603135 51.934026,23.7579524 L51.934026,23.7579524 L47.0817312,26.4560886 L52.6335157,36.4403495 L57.2201229,33.8899499 Z M54.0072289,28.0789974 L51.154583,29.6652216 L49.6227881,26.9104605 L52.4754341,25.3242364 C52.9508751,25.0598657 53.3714687,24.960246 53.737215,25.0253772 C54.1029613,25.0905084 54.4257954,25.3747781 54.7057174,25.8781862 C54.9545368,26.3256601 55.0052037,26.7460134 54.8577178,27.139246 C54.710232,27.5324787 54.4267357,27.8457292 54.0072289,28.0789974 L54.0072289,28.0789974 Z M56.6787149,32.3236659 L53.5883485,34.0420754 L51.8543878,30.9237418 L54.9447542,29.2053323 C55.4761294,28.9098592 55.9625127,28.8133226 56.403904,28.9157224 C56.8452953,29.0181222 57.20336,29.316365 57.4780982,29.8104508 C57.7580201,30.3138589 57.8276138,30.7847118 57.6868794,31.2230096 C57.546145,31.6613073 57.2100901,32.0281928 56.6787149,32.3236659 L56.6787149,32.3236659 Z M66.8493158,29.7599872 C67.6440636,29.4492562 68.299562,29.0240378 68.815811,28.4843318 C69.33206,27.9446259 69.7096947,27.3359961 69.948715,26.6584423 C70.1877353,25.9808886 70.2919134,25.2587053 70.2612493,24.4918924 C70.2305851,23.7250796 70.0657138,22.9592008 69.7666352,22.1942561 C69.4714408,21.4392457 69.0750544,20.7696112 68.5774759,20.1853528 C68.0798975,19.6010944 67.5135071,19.1410904 66.8783048,18.8053407 C66.2431026,18.469591 65.5518238,18.2760223 64.8044687,18.2246345 C64.0571135,18.1732468 63.286062,18.3029184 62.4913142,18.6136494 C61.6965664,18.9243803 61.0420391,19.3520823 60.5277321,19.8967554 C60.0134252,20.4414286 59.6367615,21.052542 59.3977412,21.7300957 C59.1587209,22.4076495 59.0545428,23.1298328 59.085207,23.8966456 C59.1158711,24.6634584 59.2788004,25.4243701 59.5739948,26.1793805 C59.8730733,26.9443252 60.2714018,27.6189268 60.7689803,28.2031852 C61.2665588,28.7874436 61.8329491,29.2474477 62.4681514,29.5831974 C63.1033537,29.9189471 63.7936613,30.1100322 64.5390744,30.1564527 C65.2844875,30.2028733 66.054568,30.0707181 66.8493158,29.7599872 Z M66.2550428,28.240032 C65.688785,28.4614278 65.1548509,28.5384766 64.6532403,28.4711782 C64.1516297,28.4038799 63.6969083,28.2294884 63.289076,27.9480035 C62.8812437,27.6665187 62.5200765,27.3066607 62.2055745,26.8684294 C61.8910724,26.430198 61.6347759,25.9577565 61.4366849,25.4511048 C61.2385939,24.9444531 61.1064768,24.4234599 61.0403334,23.8881251 C60.97419,23.3527904 60.9954952,22.8433931 61.104249,22.3599331 C61.2130028,21.8764732 61.4288498,21.4399024 61.7517901,21.0502207 C62.0747303,20.660539 62.5193294,20.3550003 63.0855872,20.1336045 C63.651845,19.9122087 64.1857792,19.83516 64.6873897,19.9024583 C65.1890003,19.9697566 65.6437217,20.1441482 66.051554,20.425633 C66.4593863,20.7071178 66.8205535,21.0669759 67.1350555,21.5052072 C67.4495576,21.9434385 67.7058541,22.41588 67.9039451,22.9225317 C68.1020361,23.4291834 68.2341532,23.9501767 68.3002966,24.4855114 C68.36644,25.0208461 68.3451348,25.5302435 68.236381,26.0137034 C68.1276272,26.4971633 67.9117802,26.9337341 67.58884,27.3234158 C67.2658997,27.7130975 66.8213006,28.0186362 66.2550428,28.240032 Z M73.9565171,26.9485277 L74.2498636,23.7535774 L78.669099,22.6293181 L80.4535683,25.2956694 L82.5313843,24.7670703 L75.4506445,14.7805343 L73.3883346,15.3051887 L71.9562316,27.457403 L73.9565171,26.9485277 Z M77.7826449,21.286417 L74.4023176,22.1463768 L74.865931,16.9599724 L74.9124492,16.9481381 L77.7826449,21.286417 Z M86.3250092,24.5997248 L85.2040319,14.9687422 L88.8116772,14.5488382 L88.6118991,12.8324254 L79.4259123,13.9016084 L79.6256905,15.6180211 L83.2174431,15.1999669 L84.3384204,24.8309495 L86.3250092,24.5997248 Z M96.9440912,24.6385781 L97.5789915,19.9776214 L100.496053,20.3749739 C100.950523,20.4368803 101.315164,20.545759 101.589976,20.70161 C101.864789,20.8574609 102.069832,21.0710904 102.205104,21.3424983 C102.340377,21.6139062 102.414166,21.9415301 102.426471,22.3253699 C102.438777,22.7092097 102.409658,23.1600717 102.339113,23.6779558 C102.301681,23.9527514 102.276021,24.2399157 102.262133,24.5394487 C102.248244,24.8389816 102.298727,25.1203701 102.413581,25.3836141 L102.413581,25.3836141 L104.537963,25.6729904 C104.358255,25.4116774 104.255269,25.002029 104.229007,24.4440453 C104.202745,23.8860615 104.234963,23.2741442 104.325663,22.6082932 C104.38613,22.1643926 104.381031,21.7869171 104.310367,21.4758666 C104.239703,21.1648162 104.132416,20.9052942 103.988505,20.6973007 C103.844595,20.4893072 103.680635,20.3297171 103.496624,20.2185304 C103.312614,20.1073438 103.137496,20.0296639 102.971271,19.9854909 L102.971271,19.9854909 L102.97559,19.9537837 C103.07503,19.9350337 103.234278,19.8921348 103.453331,19.825087 C103.672385,19.7580393 103.90236,19.6305793 104.143254,19.4427072 C104.384149,19.2548351 104.607979,18.9946648 104.814744,18.6621965 C105.02151,18.3297281 105.161604,17.8939828 105.235028,17.3549606 C105.366039,16.3931759 105.15647,15.6003018 104.606319,14.9763383 C104.056168,14.3523748 103.157518,13.9554517 101.910368,13.7855691 L101.910368,13.7855691 L96.5042926,13.0491712 L94.9623919,24.3686375 L96.9440912,24.6385781 Z M101.034133,18.9142325 L97.7841463,18.4715299 L98.2657203,14.9361784 L101.484,15.3745619 C101.737657,15.4091143 101.980509,15.463725 102.212554,15.5383942 C102.444599,15.6130633 102.644463,15.7264095 102.812145,15.8784327 C102.979828,16.0304559 103.101038,16.2272833 103.175775,16.468915 C103.250513,16.7105467 103.263407,17.0110366 103.214457,17.3703847 C103.132396,17.9728213 102.907029,18.4023337 102.538357,18.6589218 C102.169685,18.9155099 101.668277,19.0006135 101.034133,18.9142325 L101.034133,18.9142325 Z M106.375477,26.3287921 L108.393683,23.8346786 L112.693188,25.353843 L112.696503,28.5622303 L114.718024,29.2765041 L114.375286,17.0392534 L112.368851,16.33031 L104.429385,25.6411702 L106.375477,26.3287921 Z M112.701739,23.7447716 L109.412995,22.5827441 L112.678714,18.5270313 L112.723972,18.5430225 L112.701739,23.7447716 Z M119.314681,32.4277113 C119.911348,32.7808405 120.514571,33.0077049 121.124351,33.1083046 C121.734131,33.2089042 122.327191,33.1911541 122.903532,33.0550542 C123.479872,32.9189543 124.01987,32.6714829 124.523524,32.31264 C125.027178,31.953797 125.471212,31.4914976 125.855626,30.9257416 L125.855626,30.9257416 L124.17578,29.9315472 C123.927185,30.2678161 123.650864,30.5566888 123.346817,30.7981655 C123.04277,31.0396421 122.715914,31.2149422 122.366251,31.3240657 C122.016588,31.4331891 121.655497,31.467378 121.282978,31.4266323 C120.91046,31.3858867 120.531431,31.251426 120.145893,31.0232502 C119.622662,30.7135831 119.233049,30.3404558 118.977054,29.9038683 C118.721059,29.4672807 118.578309,29.0016561 118.548803,28.5069942 C118.519298,28.0123324 118.580276,27.5061494 118.731737,26.9884452 C118.883199,26.470741 119.097465,25.977812 119.374535,25.5096583 C119.651606,25.0415046 119.980615,24.6164851 120.361564,24.2345998 C120.742513,23.8527145 121.156901,23.5556926 121.604728,23.3435341 C122.052556,23.1313756 122.529421,23.032462 123.035323,23.0467932 C123.541225,23.0611245 124.055791,23.2231237 124.579022,23.5327908 C124.937022,23.7446682 125.222897,23.9789324 125.436648,24.2355833 C125.650399,24.4922342 125.806638,24.7675251 125.905364,25.0614559 C126.00409,25.3553868 126.047084,25.6597148 126.034345,25.97444 C126.021606,26.2891652 125.967747,26.6105408 125.872767,26.9385669 L125.872767,26.9385669 L127.593921,27.9572087 C127.853944,27.392202 127.991449,26.8352508 128.006435,26.2863551 C128.021422,25.7374594 127.928597,25.2084214 127.72796,24.699241 C127.527323,24.1900606 127.228568,23.7157716 126.831696,23.276374 C126.434823,22.8369765 125.961003,22.454295 125.410234,22.1283296 C124.675875,21.6937091 123.935756,21.4416011 123.189876,21.3720056 C122.443996,21.3024102 121.730572,21.3821686 121.049604,21.6112811 C120.368636,21.8403935 119.735579,22.2032173 119.150434,22.6997525 C118.565289,23.1962877 118.066271,23.7933757 117.653382,24.4910165 C117.23506,25.1978369 116.949044,25.9271844 116.795334,26.6790591 C116.641625,27.4309338 116.628183,28.1604687 116.75501,28.8676637 C116.881837,29.5748587 117.156566,30.2363436 117.579197,30.8521184 C118.001828,31.4678932 118.580322,31.9930909 119.314681,32.4277113 Z M131.185415,40.8965181 L132.29244,39.5696877 L127.427395,35.5105948 L129.569694,32.9429323 L133.992462,36.6330167 L135.037986,35.3798991 L130.615218,31.6898147 L132.532012,29.3924324 L137.311058,33.3797736 L138.418084,32.0529432 L132.103354,26.7843227 L124.784686,35.5561459 L131.185415,40.8965181 Z M134.726922,45.0372325 C135.113128,45.4500851 135.540732,45.8096049 136.009734,46.115792 C136.478736,46.4219791 136.964136,46.6324931 137.465933,46.7473338 C137.96773,46.8621746 138.473423,46.860172 138.983013,46.741326 C139.492603,46.6224801 139.981088,46.3444503 140.448468,45.9072368 C140.666579,45.7032038 140.85372,45.4660648 141.009893,45.1958196 C141.166065,44.9255744 141.275814,44.6330277 141.33914,44.3181796 C141.402467,44.0033315 141.413402,43.6754163 141.371947,43.3344339 C141.330491,42.9934515 141.225086,42.6465631 141.055731,42.2937688 C140.984874,42.1555658 140.864139,41.9289129 140.693527,41.61381 C140.522915,41.2987071 140.348786,40.9759402 140.171138,40.6455093 C139.993491,40.3150785 139.833684,40.0154292 139.691717,39.7465616 C139.54975,39.4776939 139.468088,39.3240373 139.44673,39.2855917 C139.255514,38.9094284 139.158024,38.551484 139.15426,38.2117585 C139.150496,37.8720331 139.296618,37.5637194 139.592626,37.2868175 C139.802947,37.0900714 140.023757,36.9748018 140.255058,36.9410086 C140.486358,36.9072154 140.712129,36.9260646 140.932372,36.9975559 C141.152614,37.0690473 141.364062,37.1779787 141.566714,37.3243502 C141.769366,37.4707216 141.950847,37.6295937 142.111159,37.8009665 C142.584807,38.3072951 142.863653,38.8278808 142.947697,39.3627234 C143.031741,39.897566 142.823236,40.4358593 142.322183,40.9776032 L142.322183,40.9776032 L143.688475,42.4381666 C144.124697,42.0301006 144.428183,41.5855348 144.598932,41.1044691 C144.769681,40.6234035 144.831377,40.1311543 144.784019,39.6277218 C144.736661,39.1242892 144.589107,38.6269486 144.341356,38.1356999 C144.093605,37.6444513 143.765696,37.1807161 143.35763,36.7444945 C143.00786,36.3705903 142.613047,36.046124 142.173192,35.7710956 C141.733337,35.4960672 141.277337,35.3091736 140.80519,35.210415 C140.333044,35.1116563 139.861147,35.1185593 139.3895,35.2311239 C138.917853,35.3436886 138.471708,35.596717 138.051066,35.9902091 C137.832955,36.1942421 137.646065,36.4238429 137.490395,36.6790115 C137.334726,36.9341802 137.228997,37.2193142 137.173209,37.5344137 C137.117421,37.8495132 137.124703,38.1969027 137.195054,38.576582 C137.265406,38.9562614 137.421442,39.3689849 137.663163,39.8147525 C138.0466,40.536926 138.373627,41.1402451 138.644244,41.6247096 C138.914861,42.1091742 139.134093,42.5504185 139.301939,42.9484425 C139.399934,43.1781104 139.440385,43.436046 139.423294,43.7222493 C139.406203,44.0084526 139.237969,44.3009356 138.918593,44.5996982 C138.762799,44.745436 138.579806,44.8581934 138.369612,44.9379704 C138.159418,45.0177475 137.930317,45.0421806 137.682308,45.0112699 C137.434299,44.9803592 137.167633,44.8865664 136.882311,44.7298914 C136.59699,44.5732164 136.304947,44.3351906 136.006185,44.0158141 C135.729283,43.7198066 135.505526,43.4142513 135.334914,43.0991484 C135.164303,42.7840455 135.059965,42.4617194 135.021902,42.1321701 C134.983838,41.8026209 135.026749,41.4776586 135.150633,41.1572833 C135.274517,40.836908 135.496147,40.5273391 135.815523,40.2285765 L135.815523,40.2285765 L134.449231,38.7680131 C133.9424,39.2567377 133.587527,39.7712831 133.384613,40.3116495 C133.1817,40.8520159 133.105241,41.3909394 133.155237,41.9284199 C133.205233,42.4659004 133.368554,42.9996135 133.645201,43.5295591 C133.921848,44.0595047 134.282422,44.5620625 134.726922,45.0372325 Z" id="TROMPBOATRACES" fill="#18265D" fill-rule="nonzero"></path>
                        <path d="M96.6310097,168.401711 L96.330057,164.910659 L89.4196871,165.506381 L93.0401899,161.677272 C93.3925383,161.293592 93.7325874,160.906957 94.0603373,160.517367 C94.3880872,160.127778 94.6735801,159.713727 94.9168159,159.275216 C95.1600516,158.836704 95.3404172,158.367479 95.4579124,157.86754 C95.5754077,157.367601 95.6080452,156.814755 95.5558251,156.209002 C95.4802434,155.332254 95.2429167,154.581864 94.8438451,153.957834 C94.4447735,153.333804 93.9397501,152.831323 93.3287748,152.450391 C92.7177995,152.069459 92.0367393,151.806984 91.2855942,151.662966 C90.5344491,151.518949 89.7683251,151.480608 88.9872221,151.547945 C88.1582966,151.619404 87.3838586,151.810626 86.6639081,152.12161 C85.9439577,152.432595 85.3173163,152.847951 84.7839841,153.367678 C84.2506518,153.887406 83.8255389,154.498175 83.5086453,155.199986 C83.1917516,155.901796 83.022586,156.687228 83.0011482,157.556281 L83.0011482,157.556281 L86.8962189,157.750457 C86.909961,156.978424 87.1077791,156.339071 87.489673,155.832399 C87.8715669,155.325726 88.3972723,155.043531 89.0667891,154.985814 C89.7044241,154.930846 90.2306792,155.074176 90.6455542,155.415806 C91.0604293,155.757435 91.2939769,156.231127 91.346197,156.83688 C91.3901718,157.346988 91.302497,157.820267 91.0831725,158.256717 C90.8638481,158.693168 90.5641321,159.128518 90.1840246,159.56277 L90.1840246,159.56277 L84.0998319,166.109523 L84.3884167,169.457107 L96.6310097,168.401711 Z M109.510334,165.710627 C110.639858,165.305441 111.517566,164.731363 112.143457,163.988393 C112.769348,163.245423 113.191675,162.396994 113.410438,161.443106 C113.6292,160.489217 113.66785,159.459704 113.526386,158.354565 C113.384922,157.249426 113.111597,156.132095 112.706411,155.002571 C112.301225,153.873047 111.803346,152.840518 111.212774,151.904983 C110.622202,150.969449 109.942008,150.21055 109.172192,149.628285 C108.402376,149.046021 107.541098,148.670799 106.588357,148.50262 C105.635616,148.33444 104.594483,148.452944 103.464959,148.85813 C102.335435,149.263316 101.452612,149.834979 100.81649,150.57312 C100.180367,151.311261 99.746458,152.151096 99.5147626,153.092626 C99.2830671,154.034155 99.2366007,155.053724 99.3753633,156.151332 C99.5141259,157.248941 99.7861002,158.362507 100.191286,159.492031 C100.596472,160.621555 101.095702,161.65785 101.688975,162.600914 C102.282249,163.543979 102.97026,164.312823 103.753008,164.907446 C104.535756,165.502069 105.408617,165.885885 106.371589,166.058893 C107.334562,166.231902 108.38081,166.115813 109.510334,165.710627 Z M108.343398,162.457598 C107.846408,162.63588 107.3763,162.604788 106.933075,162.364323 C106.48985,162.123857 106.088448,161.774898 105.728869,161.317446 C105.36929,160.859993 105.049979,160.3371 104.770938,159.748767 C104.491896,159.160434 104.260533,158.610242 104.076848,158.098192 C103.898567,157.601201 103.731497,157.040694 103.575639,156.416672 C103.419781,155.792649 103.335256,155.189783 103.322064,154.608073 C103.308872,154.026364 103.396931,153.501824 103.586239,153.034455 C103.775547,152.567085 104.118697,152.24426 104.615687,152.065978 C105.112678,151.887696 105.579021,151.920138 106.014715,152.163305 C106.45041,152.406472 106.844282,152.758132 107.196331,153.218286 C107.54838,153.678439 107.862575,154.198918 108.138916,154.77972 C108.415256,155.360523 108.642567,155.89942 108.820849,156.39641 C109.004533,156.908461 109.175655,157.480263 109.334214,158.111816 C109.492773,158.743369 109.582414,159.348649 109.603136,159.927658 C109.623858,160.506666 109.54333,161.028504 109.361552,161.493173 C109.179773,161.957841 108.840389,162.279316 108.343398,162.457598 Z M132.284251,154.36845 L130.518673,151.341777 L124.527519,154.836656 L126.161764,149.82673 C126.316091,149.329193 126.458036,148.834247 126.5876,148.341892 C126.717165,147.849538 126.79807,147.353152 126.830315,146.852736 C126.86256,146.35232 126.824839,145.851041 126.717153,145.348898 C126.609466,144.846755 126.402444,144.333095 126.096088,143.807919 C125.652678,143.047796 125.117132,142.471082 124.489451,142.077778 C123.86177,141.684474 123.190325,141.446362 122.475115,141.363442 C121.759906,141.280523 121.032028,141.334657 120.291483,141.525843 C119.550937,141.71703 118.842064,142.010142 118.164864,142.405181 C117.446201,142.824405 116.828026,143.328567 116.310338,143.917666 C115.792649,144.506766 115.403951,145.150283 115.144245,145.848218 C114.884539,146.546152 114.761598,147.280077 114.775422,148.049992 C114.789247,148.819907 114.972371,149.602202 115.324797,150.396877 L115.324797,150.396877 L118.928475,148.905977 C118.610601,148.202287 118.51587,147.539769 118.644283,146.918423 C118.772695,146.297077 119.12713,145.817103 119.707587,145.478498 C120.260404,145.156018 120.797387,145.060424 121.318534,145.191716 C121.839681,145.323008 122.253433,145.651242 122.559789,146.176418 C122.817773,146.618672 122.941008,147.08396 122.929493,147.572283 C122.917978,148.060606 122.83333,148.582329 122.675549,149.137452 L122.675549,149.137452 L119.977145,157.65778 L121.670166,160.560069 L132.284251,154.36845 Z M145.348936,144.698928 L134.564996,131.567489 L131.708722,133.913149 L129.991814,140.633677 L133.417978,141.515652 L134.312593,137.61327 L142.233002,147.257829 L145.348936,144.698928 Z" id="2021" fill="#FFFFFF" fill-rule="nonzero"></path>
                    </g>
                </g>
            </g>
        </g>
    </g>
</svg>